<svg id="图层_1" data-name="图层 1" xmlns="http://www.w3.org/2000/svg" viewBox="0 0 56 19"><defs><style>.cls-1{fill:#00a0ff;}</style></defs><path class="cls-1" d="M17.71,1.87h0a9.82,9.82,0,0,0-1.1-.71.62.62,0,0,0-.8.17L13.44,4.48l-.17.22a1.27,1.27,0,0,1-1.09.51h-.47a4.22,4.22,0,0,0-4,4.45.46.46,0,0,0,.27.4,1.14,1.14,0,0,1,.64.84,1.12,1.12,0,0,1-.78,1.24,1.11,1.11,0,0,1-1.41-.82,1.09,1.09,0,0,1,.21-.93.74.74,0,0,0,.15-.5A5.17,5.17,0,0,1,12,4.27a.93.93,0,0,0,.76-.39L14.89,1a.4.4,0,0,0-.21-.63A9.5,9.5,0,0,0,6.21,17a9.92,9.92,0,0,0,1.2.79.61.61,0,0,0,.8-.17l2.37-3.15.17-.22a1.27,1.27,0,0,1,1.09-.51h.47a4.24,4.24,0,0,0,4-4.45.46.46,0,0,0-.27-.4A1.14,1.14,0,0,1,15.36,8a1.12,1.12,0,0,1,2.19-.42,1.09,1.09,0,0,1-.21.93.69.69,0,0,0-.15.5,5.17,5.17,0,0,1-5.12,5.63,1,1,0,0,0-.76.39L9.13,18a.4.4,0,0,0,.2.63A9.5,9.5,0,0,0,17.71,1.87Z" transform="translate(-2.53 0.03)"/><path class="cls-1" d="M33.37,4.47V4.24a.31.31,0,0,0-.3-.29H25.68a.29.29,0,0,0-.29.29V4.7a.29.29,0,0,0,.29.29H32a.29.29,0,0,1,.29.34,11.24,11.24,0,0,1-2.45,5.45.3.3,0,0,1-.46,0,10.37,10.37,0,0,1-2-4.44A.3.3,0,0,0,27,6.09l-.23,0-.21,0a.3.3,0,0,0-.26.35,11.72,11.72,0,0,0,2.37,5.09.29.29,0,0,1,0,.4,8.78,8.78,0,0,1-4.57,2.4.29.29,0,0,0-.26.29v.46a.29.29,0,0,0,.33.29,9.56,9.56,0,0,0,5.21-2.68.3.3,0,0,1,.4,0,11.77,11.77,0,0,0,4.49,2.66.31.31,0,0,0,.38-.19l.12-.44a.29.29,0,0,0-.19-.36A11,11,0,0,1,30.48,12a.3.3,0,0,1,0-.41A11.9,11.9,0,0,0,33.37,4.47Z" transform="translate(-2.53 0.03)"/><path class="cls-1" d="M38.49,3.48H38a.29.29,0,0,0-.29.29V5.35a.29.29,0,0,1-.3.3H36.39a.29.29,0,0,0-.29.3V6.4a.29.29,0,0,0,.29.29h1.06a.29.29,0,0,1,.3.3V9.28a.3.3,0,0,1-.3.3H36.39a.29.29,0,0,0-.29.29v.45a.29.29,0,0,0,.29.3h1.06a.29.29,0,0,1,.3.29v2.17c0,.47-.19,1.24-1.39,1.34a.29.29,0,0,0-.27.29v.45a.29.29,0,0,0,.31.3,2.35,2.35,0,0,0,2.39-2.38V10.91a.29.29,0,0,1,.29-.29H40a.29.29,0,0,0,.3-.3V9.87a.29.29,0,0,0-.3-.29h-.94a.3.3,0,0,1-.29-.3V7a.29.29,0,0,1,.29-.3H40a.29.29,0,0,0,.3-.29V6a.29.29,0,0,0-.3-.3h-.94a.29.29,0,0,1-.29-.3V3.77A.29.29,0,0,0,38.49,3.48Z" transform="translate(-2.53 0.03)"/><path class="cls-1" d="M40.84,15.09a.29.29,0,0,0,.29.3h3.33a2.61,2.61,0,0,0,2.67-2.55v-7a.3.3,0,0,0-.3-.29h-5.7a.29.29,0,0,0-.29.29Zm3.62-.74H42.17a.3.3,0,0,1-.29-.3V10.91a.29.29,0,0,1,.29-.29h3.62a.29.29,0,0,1,.29.29v1.93A1.57,1.57,0,0,1,44.46,14.35Zm1.62-7.46V9.28a.3.3,0,0,1-.29.3H42.18a.3.3,0,0,1-.3-.3V6.89a.29.29,0,0,1,.3-.3h3.61A.29.29,0,0,1,46.08,6.89Z" transform="translate(-2.53 0.03)"/><path class="cls-1" d="M45.37,3.47H42.43a.29.29,0,0,0-.29.29v.46a.29.29,0,0,0,.29.29h2.94a.29.29,0,0,0,.29-.29V3.76A.29.29,0,0,0,45.37,3.47Z" transform="translate(-2.53 0.03)"/><path class="cls-1" d="M56.59,3.93H50.48a.29.29,0,0,0-.3.29v.45a.29.29,0,0,0,.3.3h6.11a.3.3,0,0,0,.3-.3V4.22A.3.3,0,0,0,56.59,3.93Z" transform="translate(-2.53 0.03)"/><path class="cls-1" d="M54,9.15h4.26a.29.29,0,0,0,.29-.29V8.41a.29.29,0,0,0-.29-.3H48.83a.29.29,0,0,0-.3.3v.45a.29.29,0,0,0,.3.29h2.91a.3.3,0,0,1,.25.46l-1.94,3.5a1.34,1.34,0,0,0-.12.24,1.53,1.53,0,0,0,.21,1.4,1.68,1.68,0,0,0,1.36.69h5.31a.7.7,0,0,0,.59-.32.68.68,0,0,0,0-.65l-1.23-2.39a.29.29,0,0,0-.4-.13l-.4.21a.29.29,0,0,0-.13.39L56,14a.3.3,0,0,1-.27.43H51.5a.64.64,0,0,1-.52-.25.48.48,0,0,1-.08-.4.36.36,0,0,1,0-.09l2.35-4.13A.84.84,0,0,1,54,9.15Z" transform="translate(-2.53 0.03)"/></svg>